HIERARCHY
ROOT Hips
{
	OFFSET	0.00	0.00	0.00
	CHANNELS 6 Xposition Yposition Zposition Zrotation Xrotation Yrotation
	JOINT LeftUpLeg
	{
		OFFSET	 0.126116	-0.014019	-0.065224
		CHANNELS 3 Zrotation Xrotation Yrotation
		JOINT LeftLeg
		{
			OFFSET	 0.000000	 0.000000	 0.569914
			CHANNELS 3 Zrotation Xrotation Yrotation
			JOINT LeftFoot
			{
				OFFSET	 0.000000	 0.000000	 0.544423
				CHANNELS 3 Zrotation Xrotation Yrotation
				JOINT LeftToeBase
				{
					OFFSET	 0.000000	 0.000000	 0.207117
					CHANNELS 3 Zrotation Xrotation Yrotation
					End Site
					{
						OFFSET	 0.000000	 0.000000	 0.207117
					}
				}
			}
		}
	}
	JOINT RightUpLeg
	{
		OFFSET	-0.124023	-0.008373	-0.065224
		CHANNELS 3 Zrotation Xrotation Yrotation
		JOINT RightLeg
		{
			OFFSET	 0.000000	 0.000000	 0.570047
			CHANNELS 3 Zrotation Xrotation Yrotation
			JOINT RightFoot
			{
				OFFSET	 0.000000	 0.000000	 0.544354
				CHANNELS 3 Zrotation Xrotation Yrotation
				JOINT RightToeBase
				{
					OFFSET	 0.000000	 0.000000	 0.207540
					CHANNELS 3 Zrotation Xrotation Yrotation
					End Site
					{
						OFFSET	 0.000000	 0.000000	 0.207540
					}
				}
			}
		}
	}
	JOINT Spine
	{
		OFFSET	 0.000184	-0.007763	 0.117403
		CHANNELS 3 Zrotation Xrotation Yrotation
		JOINT Spine1
		{
			OFFSET	 0.000000	 0.000000	 0.137269
			CHANNELS 3 Zrotation Xrotation Yrotation
			JOINT Spine2
			{
				OFFSET	 0.000000	 0.000000	 0.156879
				CHANNELS 3 Zrotation Xrotation Yrotation
				JOINT LeftShoulder
				{
					OFFSET	 0.080501	-0.002496	 0.160144
					CHANNELS 3 Zrotation Xrotation Yrotation
					JOINT LeftArm
					{
						OFFSET	 0.000000	 0.000000	 0.164363
						CHANNELS 3 Zrotation Xrotation Yrotation
						JOINT LeftForeArm
						{
							OFFSET	 0.000000	 0.000000	 0.364576
							CHANNELS 3 Zrotation Xrotation Yrotation
							JOINT LeftHand
							{
								OFFSET	 0.000000	 0.000000	 0.360812
								CHANNELS 3 Zrotation Xrotation Yrotation
								JOINT LeftHandIndex1
								{
									OFFSET	 0.000000	 0.000000	 0.086006
									CHANNELS 3 Zrotation Xrotation Yrotation
									JOINT LeftHandIndex2
									{
										OFFSET	 0.000000	 0.000000	 0.047237
										CHANNELS 3 Zrotation Xrotation Yrotation
										JOINT LeftHandIndex3
										{
											OFFSET	-0.004284	-0.000551	 0.038165
											CHANNELS 3 Zrotation Xrotation Yrotation
											End Site
											{
												OFFSET	-0.004284	-0.000551	 0.038165
											}
										}
									}
								}
							}
						}
					}
				}
				JOINT Neck
				{
					OFFSET	 0.000000	 0.000000	 0.176489
					CHANNELS 3 Zrotation Xrotation Yrotation
					JOINT Head
					{
						OFFSET	 0.000000	-0.001747	 0.077940
						CHANNELS 3 Zrotation Xrotation Yrotation
						End Site
						{
							OFFSET	 0.000000	-0.001747	 0.077940
						}
					}
				}
				JOINT RightShoulder
				{
					OFFSET	-0.080363	 0.000306	 0.159706
					CHANNELS 3 Zrotation Xrotation Yrotation
					JOINT RightArm
					{
						OFFSET	 0.000000	 0.000000	 0.164196
						CHANNELS 3 Zrotation Xrotation Yrotation
						JOINT RightForeArm
						{
							OFFSET	 0.000000	 0.000000	 0.365611
							CHANNELS 3 Zrotation Xrotation Yrotation
							JOINT RightHand
							{
								OFFSET	 0.000000	 0.000000	 0.360648
								CHANNELS 3 Zrotation Xrotation Yrotation
								JOINT RightHandIndex1
								{
									OFFSET	 0.000000	 0.000000	 0.069977
									CHANNELS 3 Zrotation Xrotation Yrotation
									JOINT RightHandIndex2
									{
										OFFSET	 0.000000	 0.000000	 0.052305
										CHANNELS 3 Zrotation Xrotation Yrotation
										JOINT RightHandIndex3
										{
											OFFSET	 0.009002	-0.000782	 0.042196
											CHANNELS 3 Zrotation Xrotation Yrotation
											End Site
											{
												OFFSET	 0.009002	-0.000782	 0.042196
											}
										}
									}
								}
							}
						}
					}
				}
			}
		}
	}
}
MOTION
Frames:    10
Frame Time: 0.03333334
-0.407947	 0.200449	 1.227942	-174.987800	 8.386676	 14.130510	 4.674784	-4.477024	-178.835800	-7.765464	-36.441540	-4.968813	 107.296300	 58.797080	-124.156600	-2.385833	 28.452760	 0.000004	 14.774980	-48.258990	 163.149400	 5.325064	-47.256890	 2.794398	-5.346820	 70.446280	 23.888000	 2.384659	 28.388700	-0.000001	 39.987270	-18.891680	 3.767543	 43.517140	 19.032270	 18.121240	-6.284987	-0.968962	-16.732980	-91.776220	 78.527380	-180.000000	-3.451956	 47.679790	 1.401441	-2.866904	-2.933397	-106.719400	 4.185663	-26.578680	-0.774482	-4.130319	 21.525730	 0.991547	-5.167930	 0.731704	 3.519349	-1.378229	 35.397820	-2.634230	-18.348350	 7.160977	 7.649983	-23.062400	-21.735860	-15.430340	 89.782150	 78.298730	 179.993500	 64.859030	-0.888998	-11.485800	-14.901080	-9.977221	 48.058590	-31.432720	 5.067883	-80.756730	 5.716227	 19.173190	-3.685159	 5.027444	 0.246877	-9.377972	-2.350882	 35.473990	 5.254307
-0.413874	 0.212853	 1.230649	-173.952600	 8.100987	 12.508810	 5.735738	-1.405614	-177.498300	-7.731376	-32.690320	-4.501169	 105.860700	 58.427220	-122.059800	-2.385833	 28.452760	 0.000004	 16.256250	-46.519610	 165.250600	 5.733581	-47.730320	 3.118571	-6.380398	 72.068640	 24.143380	 2.384659	 28.388700	-0.000001	 37.090850	-16.567430	 4.290253	 40.966760	 16.839610	 19.751820	-5.414710	-0.238640	-15.985670	-91.776190	 78.527380	 180.000000	-7.202796	 44.621960	 8.891373	-2.986032	-3.025371	-108.297000	 4.896278	-27.685800	-0.504378	-4.130319	 21.525730	 0.991547	-5.167930	 0.731704	 3.519349	-1.378229	 35.397820	-2.634230	-17.567570	 7.739443	 8.110098	-22.704790	-22.335320	-16.421640	 89.782170	 78.295390	 179.993900	 63.099420	-11.426960	-16.124480	-12.427930	-9.241664	 55.171600	-37.197840	 11.061860	-74.095540	 5.716227	 19.173190	-3.685159	 5.027444	 0.246877	-9.377972	-2.350882	 35.473990	 5.254307
-0.417718	 0.221667	 1.232772	-172.807800	 7.474341	 11.090970	 6.497242	 1.682669	-176.541900	-7.959502	-28.775580	-4.125157	 105.599100	 57.634980	-120.745100	-2.385833	 28.452760	 0.000004	 18.175120	-45.178830	 167.386000	 5.748025	-48.225820	 3.153718	-5.841446	 73.530080	 22.907020	 2.384659	 28.388700	-0.000001	 34.438680	-14.650050	 4.913160	 39.078980	 14.580070	 21.139910	-4.569712	 0.640578	-15.518490	-91.776220	 78.527400	-180.000000	-10.555950	 43.308040	 14.591810	-2.993493	-2.828466	-109.611000	 5.371425	-29.433020	-0.332512	-4.130319	 21.525730	 0.991547	-5.167930	 0.731704	 3.519349	-1.378229	 35.397820	-2.634230	-16.897120	 7.677749	 8.201261	-22.016000	-22.567630	-15.809800	 89.782160	 78.289670	 179.994200	 59.043070	-16.688060	-18.210880	-11.854500	-8.773556	 56.328330	-40.753940	 10.813270	-69.794640	 5.716227	 19.173190	-3.685159	 5.027444	 0.246877	-9.377972	-2.350882	 35.473990	 5.254307
-0.419702	 0.227036	 1.234351	-171.605100	 6.769917	 10.662620	 7.442123	 3.667815	-176.810700	-8.319764	-26.691200	-4.014948	 106.321300	 56.919060	-120.711200	-2.385833	 28.452760	 0.000004	 19.649210	-44.069650	 168.310100	 5.395294	-48.039770	 2.881690	-2.760546	 74.170110	 19.078070	 2.384659	 28.388700	-0.000001	 31.816780	-13.339640	 4.395267	 37.900790	 12.512190	 22.536810	-3.711494	 1.814546	-15.325340	-91.776180	 78.527400	-180.000000	-13.628820	 43.198680	 18.532750	-2.867316	-2.362942	-110.457000	 5.753576	-31.407030	-0.321836	-4.130319	 21.525730	 0.991547	-5.167930	 0.731704	 3.519349	-1.378229	 35.397820	-2.634230	-16.223560	 7.740364	 8.402689	-21.501670	-22.653380	-15.830050	 89.782080	 78.290380	 179.993900	 55.811240	-18.812260	-19.536190	-11.816790	-8.867500	 56.779740	-43.450110	 9.609672	-68.042850	 5.716227	 19.173190	-3.685159	 5.027444	 0.246877	-9.377972	-2.350882	 35.473990	 5.254307
-0.420113	 0.229544	 1.235210	-170.627300	 6.064714	 10.348360	 7.766095	 4.758078	-177.023900	-8.895952	-25.935140	-4.166838	 106.886200	 56.441240	-120.750100	-2.385833	 28.452760	 0.000004	 20.572940	-42.959410	 168.774100	 5.163658	-47.482520	 2.685340	-0.506443	 74.233580	 16.343880	 2.384659	 28.388700	-0.000001	 29.725060	-11.707620	 3.777319	 37.065040	 10.570220	 23.735460	-2.921133	 2.770889	-14.980370	-91.776210	 78.527380	-180.000000	-15.828610	 43.273040	 20.626680	-2.652795	-1.756343	-110.787800	 5.875030	-33.005800	-0.525172	-4.130319	 21.525730	 0.991547	-5.167930	 0.731704	 3.519349	-1.378229	 35.397820	-2.634230	-15.512020	 8.599431	 8.351553	-21.109340	-23.442870	-15.922900	 89.782070	 78.291420	 179.993700	 51.746040	-19.425660	-20.496910	-11.764500	-8.676764	 56.453250	-44.857800	 7.803776	-68.139270	 5.716227	 19.173190	-3.685159	 5.027444	 0.246877	-9.377972	-2.350882	 35.473990	 5.254307
-0.419952	 0.230279	 1.235751	-169.826400	 5.237128	 9.708859	 8.376684	 5.964320	-176.968800	-9.512043	-25.152830	-4.318048	 108.352700	 56.069370	-121.429300	-2.385833	 28.452760	 0.000004	 22.865710	-42.005490	 169.935500	 4.294377	-47.195270	 2.034276	 3.180652	 74.339890	 12.616160	 2.384659	 28.388700	-0.000001	 28.154600	-9.424145	 3.489910	 36.452370	 8.571321	 24.834420	-2.149523	 3.673942	-14.394350	-91.776170	 78.527420	 180.000000	-17.470800	 43.277910	 21.525840	-2.523963	-1.406274	-110.929200	 6.266597	-34.180180	-0.570963	-4.130319	 21.525730	 0.991547	-5.167930	 0.731704	 3.519349	-1.378229	 35.397820	-2.634230	-14.411860	 8.945952	 7.362073	-20.384750	-23.687880	-14.730100	 89.782120	 78.293660	 179.992900	 48.261960	-19.081620	-21.481620	-11.636840	-8.515681	 56.562630	-44.862300	 6.425603	-68.536930	 5.716227	 19.173190	-3.685159	 5.027444	 0.246877	-9.377972	-2.350882	 35.473990	 5.254307
-0.419658	 0.230327	 1.236082	-169.272300	 4.586428	 9.992173	 10.138270	 6.278295	-178.106300	-10.438240	-25.751750	-4.827184	 112.100600	 55.802860	-124.220800	-2.385833	 28.452760	 0.000004	 24.305070	-41.270030	 169.897900	 3.648901	-46.317300	 1.537996	 5.758660	 73.472340	 9.810677	 2.384659	 28.388700	-0.000001	 26.852370	-7.944336	 2.512239	 36.280960	 6.675093	 25.653570	-1.344309	 4.672047	-13.971270	-91.776150	 78.527420	 180.000000	-19.233240	 43.934430	 22.305840	-2.437172	-1.176382	-110.977800	 6.695993	-35.353020	-0.545413	-4.130319	 21.525730	 0.991547	-5.167930	 0.731704	 3.519349	-1.378229	 35.397820	-2.634230	-13.538200	 8.366970	 7.345579	-19.644230	-23.012680	-14.356570	 89.782140	 78.292470	 179.992700	 46.167320	-18.596160	-22.099570	-11.645990	-8.607544	 56.799480	-43.798750	 5.171100	-67.511250	 5.716227	 19.173190	-3.685159	 5.027444	 0.246877	-9.377972	-2.350882	 35.473990	 5.254307
-0.419626	 0.229946	 1.236203	-169.392000	 4.054604	 9.789902	 11.174080	 7.014612	-178.261900	-11.240780	-25.333880	-5.109138	 114.471600	 55.600910	-125.504500	-2.385833	 28.452760	 0.000004	 25.221940	-40.745000	 170.137300	 3.129027	-46.140660	 1.158419	 6.865786	 73.132460	 8.903132	 2.384659	 28.388700	-0.000001	 26.739880	-6.544409	 2.456531	 36.246170	 5.381136	 26.022890	-0.974269	 5.210002	-13.553080	-91.776180	 78.527350	-180.000000	-19.743100	 43.942660	 22.338490	-2.396541	-1.067754	-111.022200	 6.669014	-35.731420	-0.599198	-4.130319	 21.525730	 0.991547	-5.167930	 0.731704	 3.519349	-1.378229	 35.397820	-2.634230	-13.223380	 8.446539	 7.595923	-19.364330	-22.735410	-15.431340	 89.782120	 78.292470	 179.992400	 45.728980	-18.203000	-22.396780	-11.774290	-8.860759	 56.955210	-42.489080	 5.542560	-66.440460	 5.716227	 19.173190	-3.685159	 5.027444	 0.246877	-9.377972	-2.350882	 35.473990	 5.254307
-0.419540	 0.230133	 1.236475	-170.102300	 4.333087	 9.758717	 12.343160	 6.962758	-178.315600	-11.852070	-24.803080	-5.275550	 115.940100	 54.353790	-126.059900	-2.385833	 28.452760	 0.000004	 26.219750	-41.209190	 170.579500	 2.616476	-46.181750	 0.789283	 10.286060	 72.670650	 5.241596	 2.384659	 28.388700	-0.000001	 27.582590	-7.407842	 2.936068	 36.161880	 6.011707	 25.558480	-1.179424	 4.859090	-13.658850	-91.776170	 78.527380	 180.000000	-18.836860	 43.720700	 21.838530	-2.349894	-0.950841	-110.935500	 5.891374	-35.118430	-0.888729	-4.130319	 21.525730	 0.991547	-5.167930	 0.731704	 3.519349	-1.378229	 35.397820	-2.634230	-13.467860	 8.444141	 7.751366	-19.535870	-22.762360	-15.668610	 89.782100	 78.293010	 179.992600	 46.419840	-18.067920	-22.042020	-11.748050	-8.796304	 56.887000	-40.941650	 6.822526	-65.446780	 5.716227	 19.173190	-3.685159	 5.027444	 0.246877	-9.377972	-2.350882	 35.473990	 5.254307
-0.419254	 0.230172	 1.236910	-170.362700	 4.157333	 10.338950	 12.365860	 6.680005	-178.811400	-12.563010	-25.390140	-5.709084	 118.662900	 53.571830	-128.005600	-2.385833	 28.452760	 0.000004	 25.120990	-40.809010	 169.533600	 2.737277	-45.338760	 0.864001	 8.894790	 71.807810	 6.607744	 2.384659	 28.388700	-0.000001	 27.685490	-7.303112	 2.598323	 36.271470	 4.975131	 25.582250	-0.987803	 5.531108	-13.788050	-91.776210	 78.527400	-180.000000	-17.000210	 43.289600	 20.394190	-2.333118	-0.911152	-110.844200	 4.818371	-33.832640	-1.201922	-4.130319	 21.525730	 0.991547	-5.167930	 0.731704	 3.519349	-1.378229	 35.397820	-2.634230	-13.169050	 8.967169	 6.964823	-19.599650	-23.400540	-15.547460	 89.782140	 78.288650	 179.992800	 48.365620	-17.532460	-21.289640	-11.881860	-8.990200	 56.841080	-39.372030	 8.872641	-63.026780	 5.716227	 19.173190	-3.685159	 5.027444	 0.246877	-9.377972	-2.350882	 35.473990	 5.254307
